<svg width="512" height="512" viewBox="0 0 512 512" fill="none" xmlns="http://www.w3.org/2000/svg">
  <defs>
    <linearGradient id="bg" x1="72" y1="64" x2="440" y2="448" gradientUnits="userSpaceOnUse">
      <stop stop-color="#091427"/>
      <stop offset="1" stop-color="#160C2F"/>
    </linearGradient>
    <linearGradient id="rainbow" x1="122" y1="86" x2="387" y2="396" gradientUnits="userSpaceOnUse">
      <stop stop-color="#61F6FF"/>
      <stop offset="0.2" stop-color="#FFE66D"/>
      <stop offset="0.42" stop-color="#FF7A7A"/>
      <stop offset="0.68" stop-color="#9A6BFF"/>
      <stop offset="1" stop-color="#58FFC7"/>
    </linearGradient>
    <radialGradient id="glow" cx="0" cy="0" r="1" gradientUnits="userSpaceOnUse" gradientTransform="translate(256 232) rotate(90) scale(190)">
      <stop stop-color="white" stop-opacity="0.96"/>
      <stop offset="0.22" stop-color="#FFF27A" stop-opacity="0.92"/>
      <stop offset="0.48" stop-color="#FF6F7C" stop-opacity="0.76"/>
      <stop offset="0.74" stop-color="#7E6BFF" stop-opacity="0.52"/>
      <stop offset="1" stop-color="#43E8FF" stop-opacity="0"/>
    </radialGradient>
    <filter id="shadow" x="24" y="24" width="464" height="464" filterUnits="userSpaceOnUse" color-interpolation-filters="sRGB">
      <feFlood flood-opacity="0" result="BackgroundImageFix"/>
      <feColorMatrix in="SourceAlpha" type="matrix" values="0 0 0 0 0 0 0 0 0 0 0 0 0 0 0 0 0 0 127 0" result="hardAlpha"/>
      <feOffset dy="14"/>
      <feGaussianBlur stdDeviation="16"/>
      <feColorMatrix type="matrix" values="0 0 0 0 0.02 0 0 0 0 0.04 0 0 0 0 0.14 0 0 0 0.42 0"/>
      <feBlend mode="normal" in2="BackgroundImageFix" result="effect1_dropShadow_1_2"/>
      <feBlend mode="normal" in="SourceGraphic" in2="effect1_dropShadow_1_2" result="shape"/>
    </filter>
    <filter id="outerGlow" x="88" y="70" width="336" height="356" filterUnits="userSpaceOnUse" color-interpolation-filters="sRGB">
      <feFlood flood-opacity="0" result="BackgroundImageFix"/>
      <feBlend mode="normal" in="SourceGraphic" in2="BackgroundImageFix" result="shape"/>
      <feGaussianBlur stdDeviation="18" result="effect1_foregroundBlur_1_2"/>
    </filter>
  </defs>

  <g filter="url(#shadow)">
    <rect x="52" y="52" width="408" height="408" rx="110" fill="url(#bg)"/>
    <rect x="60" y="60" width="392" height="392" rx="102" stroke="url(#rainbow)" stroke-width="16" opacity="0.92"/>
  </g>

  <circle cx="256" cy="232" r="138" fill="url(#glow)"/>

  <g filter="url(#outerGlow)">
    <path d="M256 111C209.056 111 171 149.056 171 196V221.318C171 252.693 158.419 282.759 136.077 304.884C127.159 313.716 133.413 329 146.317 329H365.683C378.587 329 384.841 313.716 375.923 304.884C353.581 282.759 341 252.693 341 221.318V196C341 149.056 302.944 111 256 111Z" fill="url(#rainbow)"/>
    <path d="M213 351C219.457 378.888 235.386 395 256 395C276.614 395 292.543 378.888 299 351H213Z" fill="url(#rainbow)"/>
    <path d="M232 99C232 85.745 242.745 75 256 75C269.255 75 280 85.745 280 99V120H232V99Z" fill="url(#rainbow)"/>
  </g>

  <path d="M256 111C209.056 111 171 149.056 171 196V221.318C171 252.693 158.419 282.759 136.077 304.884C127.159 313.716 133.413 329 146.317 329H365.683C378.587 329 384.841 313.716 375.923 304.884C353.581 282.759 341 252.693 341 221.318V196C341 149.056 302.944 111 256 111Z" fill="#FCFCFF" fill-opacity="0.14" stroke="url(#rainbow)" stroke-width="20" stroke-linejoin="round"/>
  <path d="M213 351C219.457 378.888 235.386 395 256 395C276.614 395 292.543 378.888 299 351H213Z" fill="#FCFCFF" fill-opacity="0.14" stroke="url(#rainbow)" stroke-width="20" stroke-linejoin="round"/>
  <path d="M232 99C232 85.745 242.745 75 256 75C269.255 75 280 85.745 280 99V120H232V99Z" fill="#FCFCFF" fill-opacity="0.14" stroke="url(#rainbow)" stroke-width="20" stroke-linejoin="round"/>

  <path d="M167 145C193 117 223 98 256 89" stroke="white" stroke-opacity="0.68" stroke-width="10" stroke-linecap="round"/>
  <path d="M350 122L360 149L387 159L360 169L350 196L340 169L313 159L340 149L350 122Z" fill="#FFF1A8" fill-opacity="0.95"/>
  <path d="M160 232L167 252L187 259L167 266L160 286L153 266L133 259L153 252L160 232Z" fill="#8FEBFF" fill-opacity="0.82"/>
  <path d="M332 294L338 311L355 317L338 323L332 340L326 323L309 317L326 311L332 294Z" fill="#FF9BDE" fill-opacity="0.84"/>
</svg>
